<?xml version="1.0" encoding="UTF-8"?>
<svg id="Capa_2" data-name="Capa 2" xmlns="http://www.w3.org/2000/svg" xmlns:xlink="http://www.w3.org/1999/xlink" viewBox="0 0 333.16 185.26">
  <defs>
    <style>
      .cls-1 {
        stroke: url(#Nueva_muestra_de_degradado_1-5);
      }

      .cls-1, .cls-2, .cls-3, .cls-4, .cls-5 {
        fill: none;
        stroke-linecap: round;
        stroke-linejoin: round;
        stroke-width: 3px;
      }

      .cls-2 {
        stroke: url(#Nueva_muestra_de_degradado_1-4);
      }

      .cls-3 {
        stroke: url(#Nueva_muestra_de_degradado_1-2);
      }

      .cls-4 {
        stroke: url(#Nueva_muestra_de_degradado_1-3);
      }

      .cls-5 {
        stroke: url(#Nueva_muestra_de_degradado_1);
      }
    </style>
    <linearGradient id="Nueva_muestra_de_degradado_1" data-name="Nueva muestra de degradado 1" x1="140.95" y1="92.23" x2="192.62" y2="92.23" gradientUnits="userSpaceOnUse">
      <stop offset="0" stop-color="#00a99d"/>
      <stop offset=".51" stop-color="#76c3a8"/>
      <stop offset=".78" stop-color="#76dba8"/>
      <stop offset="1" stop-color="#76e9a8"/>
    </linearGradient>
    <linearGradient id="Nueva_muestra_de_degradado_1-2" data-name="Nueva muestra de degradado 1" x1="140.82" y1="92.06" x2="192.99" y2="92.06" xlink:href="#Nueva_muestra_de_degradado_1"/>
    <linearGradient id="Nueva_muestra_de_degradado_1-3" data-name="Nueva muestra de degradado 1" x1="126.47" y1="92.06" x2="207.34" y2="92.06" xlink:href="#Nueva_muestra_de_degradado_1"/>
    <linearGradient id="Nueva_muestra_de_degradado_1-4" data-name="Nueva muestra de degradado 1" x1="0" y1="133.62" x2="179.45" y2="133.62" xlink:href="#Nueva_muestra_de_degradado_1"/>
    <linearGradient id="Nueva_muestra_de_degradado_1-5" data-name="Nueva muestra de degradado 1" x1="153.7" y1="51.65" x2="333.16" y2="51.65" xlink:href="#Nueva_muestra_de_degradado_1"/>
  </defs>
  <g id="Capa_1-2" data-name="Capa 1">
    <g>
      <path class="cls-5" d="m149.57,109.37c4.63,4.65,10.81,7.21,17.39,7.21,13.05-.01,24.12-11.03,24.17-24.08.06-13.72-10.65-24.53-24.38-24.61-.17,0-.33,0-.49,0-6.21.09-12.08,2.57-16.57,7.03-4.64,4.59-7.2,10.67-7.23,17.11-.03,6.55,2.5,12.7,7.12,17.34Zm34.1-28.47c.67.38,1.09,1.07,1.1,1.82l.27,18.66c.01.75-.39,1.46-1.05,1.86l-15.77,9.49c-.09.05-.18.1-.28.14l10.59-34.86,5.13,2.89Zm-34.09.5l15.77-9.49c.7-.42,1.57-.43,2.28-.03l5.16,2.91-9.32,31.48-4.93-11.41-7.16.1,5.99,12.99-7.47-4.2c-.67-.38-1.09-1.07-1.1-1.82l-.27-18.66c-.01-.75.39-1.46,1.05-1.86Z"/>
      <g>
        <path class="cls-3" d="m149.26,109.11c4.61,4.76,10.81,7.44,17.45,7.54,13.18.18,24.52-10.78,24.77-23.96.26-13.85-10.4-24.93-24.26-25.21-.17,0-.33,0-.5,0-6.27,0-12.24,2.42-16.84,6.85-4.75,4.57-7.43,10.67-7.55,17.18-.12,6.61,2.34,12.87,6.94,17.61Zm34.86-28.25c.67.39,1.09,1.1,1.09,1.86v18.85c0,.76-.41,1.47-1.09,1.86l-16.06,9.35c-.09.05-.19.1-.28.14l11.21-35.05,5.14,2.99Zm-34.43,0l16.06-9.35c.71-.41,1.6-.41,2.3,0l5.17,3.01-9.87,31.65-4.81-11.6h-7.23l5.86,13.21-7.48-4.36c-.67-.39-1.09-1.1-1.09-1.86v-18.85c0-.76.41-1.47,1.09-1.86Z"/>
        <path class="cls-4" d="m166.91,130.99c-21.47,0-38.93-17.46-38.93-38.93s17.47-38.93,38.93-38.93,38.93,17.46,38.93,38.93-17.47,38.93-38.93,38.93Zm0-70.4c-17.35,0-31.46,14.11-31.46,31.46s14.11,31.46,31.46,31.46,31.46-14.11,31.46-31.46-14.11-31.46-31.46-31.46Z"/>
        <path class="cls-2" d="m130.2,183.76c-.59,0-1.19-.01-1.79-.04-14.33-.69-28.36-1-40.2-1.2-4.12-.07-7.72-1.42-10.4-2.59-.67-.29-1.39-.62-2.21-1.01-8.94-4.26-18.05-8.56-26.86-12.72l-9.86-4.65c-.15-.07-.3-.14-.45-.21l-1.51-.66-.7,1.61c-.32.74-.59,1.38-.89,2.01-.72,1.55-1.82,2.34-3.26,2.34-.45,0-.95-.08-1.46-.24-.45-.14-.89-.33-1.33-.52l-14.42-6.3c-3.37-1.47-6.73-2.95-10.09-4.42-3.38-1.48-3.98-3.05-2.49-6.46l27.08-61.92c.7-1.59,1.61-3.29,3.64-3.29.75,0,1.61.23,2.81.75,4.12,1.79,8.23,3.59,12.35,5.39,4.05,1.77,8.09,3.54,12.13,5.32,3.5,1.54,4.06,3.01,2.5,6.58-.99,2.28-1.98,4.55-2.96,6.83-.07.17-.08.33-.09.47,0,.08-.01.16-.02.26l-.05.44.41.19c.13.06.26.12.39.18,1.83.8,3.81,1.19,6.05,1.19.79,0,1.64-.05,2.52-.15,1.91-.21,3.82-.41,5.73-.6,4.21-.43,8.56-.88,12.86-1.47,1.79-.25,3.58-.37,5.31-.37,4.99,0,9.72,1,14.44,3.07.97.42,1.94.9,2.9,1.41,3.3,1.76,6.75,3.38,10.07,4.95,1.8.85,3.62,1.7,5.38,2.56,5.63,2.75,8.3,8.52,6.64,14.36-1.49,5.26-6.09,8.65-11.7,8.65-.51,0-1.04-.03-1.56-.09-3.41-.37-6.97-.83-10.12-1.23l-3.87-.49c-.25-.03-.59-.07-.98-.07-1.4,0-2.08.53-2.29,1.76-.19,1.2.28,2.08,1.37,2.56.32.14.69.25,1.17.34,4.21.83,8.42,1.68,12.63,2.54,4.86.98,9.8,1.98,14.65,2.93.4.08.81.12,1.21.12.7,0,1.36-.12,1.91-.35,7.07-2.92,14.6-6.1,23.04-9.71,2.4-1.03,4.76-1.55,7-1.55,1.85,0,3.6.36,5.22,1.06,1.87.82,3.51,2.09,4.87,3.78,2.56,3.17,3.56,7.06,2.8,10.95-.77,3.96-3.33,7.41-7.04,9.48-2.67,1.49-5.41,2.98-8.06,4.42l-.22.12c-5.62,3.07-11.44,6.24-17.07,9.58-4.72,2.8-9.53,4.1-15.12,4.1h0Zm-87.6-28.7c1.45.72,2.82,1.4,4.23,2.06,9.1,4.3,18.21,8.59,27.31,12.88l5.49,2.59c.64.3,1.28.6,1.93.89,1.67.73,3.7,1.49,6.06,1.54,6.01.15,12.12.32,18.03.5l.84.02c8.36.24,17,.5,25.5.66h.25c2.2,0,4.54-.57,6.42-1.57,7.5-4,15.05-8.2,22.34-12.27l5.91-3.29c3.27-1.82,4.43-4.96,2.96-8.02-.63-1.31-1.62-2.29-2.87-2.83-.74-.32-1.54-.48-2.4-.48-.99,0-2.01.22-3.03.65l-4.84,2.05c-6.48,2.75-13.16,5.59-19.79,8.23-1.22.49-2.64.75-3.99.75-.56,0-1.1-.05-1.59-.14-9.44-1.74-18.69-3.66-28.95-5.81-.79-.17-1.56-.41-2.27-.72-4.26-1.86-6.51-6.02-5.74-10.6.82-4.87,4.65-8.01,9.73-8.01.53,0,1.08.04,1.62.1,1.83.23,3.65.46,5.48.7,2.79.36,5.55.71,8.31,1.05.31.04.61.06.9.06,2.4,0,4.11-1.23,4.7-3.38.64-2.31-.46-4.34-3-5.59-1.47-.72-2.94-1.43-4.41-2.13-3.1-1.49-6.54-3.14-9.76-4.85-.94-.5-1.9-.97-2.83-1.37-4.24-1.86-8.36-2.76-12.59-2.76-1.71,0-3.46.15-5.21.46-2.59.45-5.26.7-7.84.94-1.45.14-2.85.27-4.24.43l-.8.09c-2.76.33-5.37.63-8,.63-3.41,0-6.22-.53-8.84-1.68-.2-.09-.4-.18-.6-.27l-.59-.28-16.41,37.52,2.56,1.26Zm-12.71,2.85l24.93-57-19.61-8.58-24.93,57,19.61,8.58Z"/>
        <path class="cls-1" d="m300.17,101.79c-.75,0-1.61-.23-2.81-.75-4.12-1.79-8.23-3.59-12.35-5.39-4.05-1.77-8.09-3.54-12.13-5.32-3.5-1.54-4.06-3.01-2.5-6.58.99-2.28,1.98-4.55,2.96-6.83.07-.17.08-.32.09-.48,0-.08.01-.16.02-.25l.05-.45-.41-.19c-.13-.06-.26-.12-.39-.18-1.83-.8-3.81-1.19-6.05-1.19-.79,0-1.64.05-2.52.15-1.91.21-3.82.41-5.73.6-4.21.43-8.56.88-12.86,1.47-1.79.25-3.58.37-5.31.37-4.99,0-9.72-1-14.44-3.07-.97-.42-1.94-.9-2.9-1.41-3.3-1.76-6.75-3.38-10.07-4.95-1.8-.85-3.62-1.7-5.38-2.56-5.63-2.75-8.3-8.52-6.64-14.36,1.49-5.26,6.09-8.65,11.7-8.65.51,0,1.04.03,1.56.09,3.41.37,6.97.83,10.12,1.23l3.87.49c.25.03.59.07.97.07,1.4,0,2.09-.53,2.29-1.76.19-1.2-.28-2.08-1.37-2.56-.32-.14-.69-.25-1.17-.34-4.21-.83-8.42-1.68-12.63-2.54-4.86-.98-9.8-1.98-14.65-2.93-.4-.08-.81-.12-1.21-.12-.7,0-1.36.12-1.91.35-7.09,2.93-14.63,6.11-23.03,9.71-2.4,1.03-4.76,1.55-7,1.55h0c-1.85,0-3.6-.36-5.22-1.06-1.87-.82-3.51-2.09-4.87-3.78-2.56-3.17-3.56-7.06-2.8-10.95.77-3.96,3.33-7.41,7.04-9.48,2.67-1.49,5.41-2.98,8.06-4.42l.22-.12c5.62-3.07,11.44-6.24,17.07-9.58,4.72-2.8,9.53-4.1,15.12-4.1.59,0,1.19.01,1.79.04,14.33.69,28.37,1,40.2,1.2,4.12.07,7.72,1.42,10.4,2.59.67.29,1.39.62,2.21,1.01,8.94,4.26,18.05,8.56,26.86,12.72l9.86,4.65c.15.07.3.14.45.21l1.51.66.7-1.61c.32-.74.59-1.38.89-2.01.72-1.55,1.82-2.34,3.26-2.34.45,0,.95.08,1.46.24.45.14.92.34,1.33.53l14.42,6.3c3.37,1.47,6.73,2.95,10.09,4.42,3.38,1.48,3.98,3.05,2.49,6.46l-27.08,61.92c-.7,1.59-1.61,3.29-3.64,3.29Zm-2.22-8.86l24.93-57-19.61-8.58-24.93,57,19.61,8.58Zm-85.26-43.71c-2.4,0-4.11,1.23-4.7,3.38-.64,2.31.46,4.34,3,5.59,1.47.72,2.94,1.43,4.41,2.13,3.1,1.49,6.54,3.14,9.76,4.85.94.5,1.89.96,2.83,1.37,4.24,1.86,8.36,2.76,12.59,2.76,1.71,0,3.46-.15,5.21-.46,2.59-.45,5.26-.7,7.84-.94,1.44-.14,2.85-.27,4.24-.43l.8-.09c2.76-.33,5.37-.63,8-.63,3.41,0,6.22.53,8.84,1.68.2.09.4.18.6.27l.59.28,16.41-37.52s-1.9-.93-2.56-1.26c-1.46-.72-2.82-1.4-4.23-2.06-9.1-4.3-18.21-8.59-27.31-12.88l-5.49-2.59c-.65-.31-1.29-.61-1.93-.89-1.67-.73-3.7-1.49-6.06-1.54-6.01-.15-12.12-.32-18.03-.5l-.84-.02c-8.36-.24-17-.5-25.5-.66h-.24c-2.2,0-4.55.57-6.43,1.57-7.51,4-15.06,8.21-22.35,12.28l-5.9,3.29c-3.27,1.82-4.43,4.96-2.96,8.02.63,1.31,1.62,2.29,2.87,2.83.74.32,1.54.48,2.4.48.99,0,2.01-.22,3.03-.65l4.84-2.05c6.48-2.75,13.16-5.59,19.79-8.23,1.22-.49,2.64-.75,3.99-.75.56,0,1.1.05,1.59.14,9.44,1.74,18.7,3.66,28.95,5.81.79.17,1.56.41,2.27.72,4.26,1.86,6.51,6.02,5.74,10.6-.83,4.87-4.65,8.01-9.73,8.01-.53,0-1.08-.04-1.62-.1-1.83-.23-3.65-.46-5.48-.7-2.78-.36-5.54-.71-8.31-1.05-.31-.04-.61-.06-.9-.06Z"/>
      </g>
    </g>
  </g>
</svg>