<?xml version="1.0" encoding="UTF-8"?>
<svg id="Capa_2" data-name="Capa 2" xmlns="http://www.w3.org/2000/svg" xmlns:xlink="http://www.w3.org/1999/xlink" viewBox="0 0 360.94 182.59">
  <defs>
    <style>
      .cls-1 {
        stroke: url(#Nueva_muestra_de_degradado_1-5);
      }

      .cls-1, .cls-2, .cls-3, .cls-4, .cls-5 {
        fill: none;
        stroke-linecap: round;
        stroke-linejoin: round;
        stroke-width: 3px;
      }

      .cls-2 {
        stroke: url(#Nueva_muestra_de_degradado_1-4);
      }

      .cls-3 {
        stroke: url(#Nueva_muestra_de_degradado_1-2);
      }

      .cls-4 {
        stroke: url(#Nueva_muestra_de_degradado_1-3);
      }

      .cls-5 {
        stroke: url(#Nueva_muestra_de_degradado_1);
      }
    </style>
    <linearGradient id="Nueva_muestra_de_degradado_1" data-name="Nueva muestra de degradado 1" x1="141.47" y1="90.8" x2="219.47" y2="90.8" gradientUnits="userSpaceOnUse">
      <stop offset="0" stop-color="#00a99d"/>
      <stop offset=".51" stop-color="#76c3a8"/>
      <stop offset=".78" stop-color="#76dba8"/>
      <stop offset="1" stop-color="#76e9a8"/>
    </linearGradient>
    <linearGradient id="Nueva_muestra_de_degradado_1-2" data-name="Nueva muestra de degradado 1" x1="146.83" y1="86.22" x2="193.08" y2="86.22" xlink:href="#Nueva_muestra_de_degradado_1"/>
    <linearGradient id="Nueva_muestra_de_degradado_1-3" data-name="Nueva muestra de degradado 1" x1="180.5" y1="96.59" x2="214.11" y2="96.59" xlink:href="#Nueva_muestra_de_degradado_1"/>
    <linearGradient id="Nueva_muestra_de_degradado_1-4" data-name="Nueva muestra de degradado 1" x1="89.96" y1="91.29" x2="270.99" y2="91.29" xlink:href="#Nueva_muestra_de_degradado_1"/>
    <linearGradient id="Nueva_muestra_de_degradado_1-5" data-name="Nueva muestra de degradado 1" x1="0" y1="91.3" x2="360.94" y2="91.3" xlink:href="#Nueva_muestra_de_degradado_1"/>
  </defs>
  <g id="Capa_1-2" data-name="Capa 1">
    <g>
      <g>
        <path class="cls-5" d="m180.47,132.68c1.61,0,3.19-.43,4.59-1.23l28.33-16.36c2.83-1.63,4.59-4.68,4.59-7.94v-32.71c0-3.27-1.76-6.31-4.59-7.94l-28.33-16.36c-1.39-.8-2.98-1.23-4.59-1.23s-3.19.42-4.58,1.23l-28.33,16.36c-2.83,1.63-4.59,4.68-4.59,7.94v32.71c0,3.27,1.76,6.31,4.59,7.94l28.33,16.36c1.39.8,2.98,1.23,4.59,1.23Z"/>
        <path class="cls-3" d="m165.8,95.15l8.44,20.36,17.34-55.58-9.08-5.29c-1.25-.72-2.8-.72-4.05,0l-28.21,16.42c-1.18.69-1.91,1.93-1.91,3.26v33.1c0,1.34.72,2.58,1.91,3.26l13.14,7.65-10.28-23.19h12.7Z"/>
        <path class="cls-4" d="m210.7,71.07l-9.02-5.25-19.68,61.55c.17-.07.33-.15.5-.24l28.21-16.42c1.18-.69,1.91-1.93,1.91-3.26v-33.1c0-1.34-.72-2.58-1.91-3.26Z"/>
      </g>
      <g>
        <path class="cls-2" d="m269.49,89.99c0-38.54,0-24.08,0-62.62,0-8.37-.54-8.94-8.65-8.94-10.2,0-20.39,0-30.59,0h0c-44.63,0-85.27,0-129.9,0-.12,0-.23,0-.34,0h-.11c-.17,0-.33,0-.49,0-.18,0-.38,0-.56,0-1.81.02-3.19.11-4.23.38,0,0,0,0,0,0-.2.05-.38.11-.55.18-.06.02-.14.04-.2.07-.09.04-.18.09-.26.13-.12.06-.25.12-.36.19,0,0,0,0-.01.01-1.59,1.05-1.78,3.23-1.78,7.72,0,38.89,0,24.78,0,63.68,0,38.89,0,25.78,0,64.68,0,4.49.19,6.66,1.78,7.72,0,0,0,0,.01.01.11.07.23.13.36.19.09.04.17.09.26.13.06.03.13.04.2.07.17.06.35.13.55.18,0,0,0,0,0,0,1.04.26,2.41.35,4.23.38.18,0,.37,0,.56,0,.17,0,.32,0,.49,0h.11c.12,0,.22,0,.34,0,44.63,0,85.27,0,129.9,0h0c10.2,0,20.39,0,30.59,0,8.11,0,8.65-.56,8.65-8.94,0-58.54,0-45.08,0-63.62v-1.6Zm-9.23,60.96q-.11,3.87-3.91,4.01c-.67.02-1.33,0-2,0-49.31,0-98.62,0-147.93,0-3.81,0-5.1.03-5.53-1.24-.01-.04-.03-.08-.05-.13-.02-.09-.04-.19-.06-.29-.01-.06-.03-.12-.04-.19-.02-.13-.03-.27-.04-.42,0-.04,0-.08-.01-.12-.04-.67-.02-1.55-.02-2.66,0-.38,0-.78,0-1.21-.01-36.64,0-21.27,0-57.91,0-36.64,0-20.27,0-56.91,0-.44,0-.84,0-1.21,0-1.11-.02-1.99.02-2.66,0-.04,0-.08.01-.12.01-.15.02-.29.04-.42,0-.07.02-.13.04-.19.02-.1.03-.2.06-.29.01-.05.03-.08.05-.13.43-1.26,1.72-1.24,5.53-1.24,49.31,0,98.62,0,147.93,0,.67,0,1.33-.02,2,0q3.8.13,3.91,4.01c.02.83,0,1.67,0,2.5,0,7.19,0-5.14,0,1.97h0c0,29.96,0,25.6,0,54.69,0,29.08,0,36.25,0,66.22h0c0,7.11,0-15.75,0-8.56,0,.83.02,1.67,0,2.5Z"/>
        <path class="cls-1" d="m357.99,140.7c-.04-.09-.09-.19-.14-.28-1.32-2.85-3.51-5.32-6.39-7.03-.03-.02-.05-.03-.08-.05-.04-.02-.07-.05-.11-.07-.17-.1-.35-.18-.53-.28-.17-.09-.34-.19-.52-.27-.18-.09-.37-.16-.55-.24-.16-.07-.31-.14-.47-.21-.03-.01-.06-.02-.09-.03-.24-.09-.49-.17-.73-.25-.17-.05-.33-.11-.5-.16-.1-.03-.2-.05-.3-.08-5.5-1.52-11.54-.29-15.06,4.06-.78.72-1.68,1.46-1.98,2.36-.14.43-.3.8-.48,1.15-1.83,2.19-3.91,3.04-6.31,3.26-.64.02-1.31,0-1.98,0-.57,0-1.1-.02-1.61-.03-.07,0-.13,0-.19-.01-.86-.07-1.73-.1-2.6-.08-5.09-.31-5.7-1.59-9.04-8.62-1.13-2.39-2.4-4.72-3.62-7.07-.34-.71-.69-1.41-1.01-2.12-.26-.58-.56-1.09-.86-1.57-.99-1.78-2.36-2.79-4.16-3.13-.82-.19-1.73-.25-2.75-.16-.25.02-.51.02-.76.04-1.74,0-3.49-.06-5.23,0-.17,0-.34,0-.5,0-.21,0-.4,0-.59-.02-1.41-.12-2.22-.75-2.42-2.22-.02-.21-.04-.43-.04-.67.04-3.86.04-7.72.03-11.58,0-2.53-.02-5.06-.03-7.6,0-.16,0-.31.02-.45,0-.01,0-.03,0-.05.14-1.21.74-1.68,1.98-1.76.01,0,.03,0,.04,0,.2-.01.41-.01.65,0,5.16.16,10.34.32,15.49.01,3.73-.22,6.37.44,8.64,3.25.11.17.22.34.32.53,2.67,4.67,6.88,7.14,11.91,7.33.31.02.63.02.94.01.02,0,.04,0,.06,0,1.19-.01,2.4-.15,3.59-.43,4.65-.99,8.12-3.53,10.29-7.48,1.33-2.28,2.09-4.88,2.15-7.53,0-.13.01-.26.01-.39,0-.13,0-.26-.01-.39-.06-2.65-.81-5.25-2.15-7.53-2.17-3.95-5.64-6.49-10.29-7.48-1.19-.28-2.39-.41-3.59-.43-.02,0-.04,0-.06,0-.32,0-.63,0-.94.01-5.03.19-9.24,2.67-11.91,7.33-.11.19-.21.36-.32.53-2.27,2.8-4.91,3.47-8.64,3.25-5.15-.31-10.33-.15-15.49.01-.23,0-.45,0-.65,0-.01,0-.03,0-.04,0-1.24-.08-1.84-.55-1.98-1.76,0-.01,0-.03,0-.05-.01-.14-.02-.29-.02-.45.01-2.53.02-5.06.03-7.6,0-3.86,0-7.72-.03-11.58,0-.24.01-.46.04-.67.2-1.47,1.01-2.1,2.42-2.22.19-.01.38-.02.59-.02.17,0,.34,0,.5,0,1.74.06,3.49,0,5.23,0,.25.01.51.01.76.04,1.03.09,1.93.03,2.75-.16,1.79-.34,3.16-1.34,4.15-3.13.31-.48.6-.99.86-1.57.32-.71.67-1.42,1.01-2.12,1.22-2.35,2.49-4.68,3.62-7.07,3.33-7.03,3.94-8.31,9.04-8.62.87.02,1.74,0,2.6-.08.07,0,.13,0,.19-.01.5,0,1.04-.02,1.61-.03.68-.01,1.34-.02,1.98,0,2.4.22,4.48,1.08,6.31,3.26.17.35.34.72.48,1.15.3.91,1.2,1.65,1.98,2.36,3.52,4.35,9.56,5.58,15.06,4.06.1-.03.2-.05.3-.08.17-.05.33-.11.5-.16.25-.08.49-.16.73-.25.03-.01.06-.02.09-.03.16-.06.32-.14.47-.21.18-.08.37-.15.55-.24.17-.08.34-.18.52-.27.18-.09.36-.18.53-.28.04-.02.07-.05.11-.07.03-.02.05-.03.08-.05,2.88-1.71,5.07-4.19,6.39-7.03.05-.09.09-.19.14-.28.02-.05.05-.1.07-.15.97-2.13,1.48-4.42,1.36-6.65-.14-2.68-.91-5.19-2.18-7.37-1.77-3.27-4.5-5.54-8.05-6.88-.6-.24-1.21-.46-1.85-.63-.51-.14-1.03-.24-1.55-.32-5.66-1.05-11.79,1.51-15.05,6.58-.19.29-.38.58-.56.88-.19.33-.38.63-.57.91-1.25,1.74-2.68,2.55-4.74,2.65-.31.01-.63.01-.98,0-3.16-.19-6.34-.07-9.52-.06-.58,0-1.17,0-1.75-.04-.66-.03-1.27,0-1.86.06-.16.01-.3.04-.45.06-.16.03-.33.04-.49.07-1.64.31-2.96,1.1-3.99,2.46,0,0-.01.02-.02.02-.18.23-.35.48-.51.74-.32.49-.62,1.02-.89,1.63-1.7,3.85-3.68,7.58-5.57,11.35-.55,1.06-1.1,2.11-1.66,3.16-.64,1.21-1.77,2.76-2.9,2.97-.76.14-1.54.19-2.33.19-.4-.03-.8-.04-1.2-.03-1.13-.06-2.26-.2-3.37-.3-.14-.09-.27-.2-.38-.32-.24-.35-.45-.91-.49-1.3-.06-.59-.09-1.18-.1-1.78.03-1,0-2,0-3,0-9.63,0-.05,0-9.68,0-4.53,0,5.09,0,0h0c0-15.1,0-10.7,0-25.8,0-1.5.07-3.02-.18-4.48-.48-2.82-1.83-3.98-4.7-4.26-.99-.1-2-.04-3-.04-65.06,0-130.13,0-195.19,0-1.16-.01-2.33-.05-3.48.03-.99.07-1.79.23-2.47.5-1.44.5-2.17,1.44-2.53,3.17,0,0,0,.02,0,.03-.02.12-.04.24-.07.37-.05.25-.1.5-.14.78-.19,1.48-.1,2.99-.1,4.49,0,37.09,0,4.42,0,28.14,0,5.87,0,1.74,0,7.6,0,.11,0,.22,0,.33,0,3.49-.02,4.79-1.33,5.29-2.18.2-4.43.47-6.53.07-.28-.09-.54-.2-.79-.33-.86-.57-1.65-1.74-2.16-2.69-.49-.92-.97-1.84-1.45-2.76-.37-.73-.75-1.47-1.14-2.19-1.07-2.07-2.12-4.16-3.12-6.27-.21-.49-.42-.99-.6-1.49-.53-1.41-1.16-2.57-1.9-3.53-1.32-1.92-3.07-2.95-5.37-3.21-1.17-.2-2.46-.22-3.89-.07-.39.04-.78.07-1.17.09-1.96,0-3.93-.06-5.89-.03-.81-.01-1.62,0-2.42.04-.23.01-.45,0-.67,0-2.31-.12-3.96-1.03-5.37-3.52-.23-.4-.46-.78-.71-1.15-.02-.03-.04-.05-.05-.08-2.15-3.17-5.09-5.16-8.6-5.97-1.97-.5-4.05-.59-6.11-.27-4.72.58-8.34,2.93-10.85,6.69-1.65,2.32-2.68,5.08-2.88,8.03-.15,2.21.25,4.43,1.08,6.49.02.05.04.1.06.15.11.28.23.56.36.83.12.27.26.53.39.78.02.04.05.09.07.13,1.17,2.15,2.82,4.07,4.91,5.53.31.22.63.41.96.61.04.03.09.06.13.08.19.11.39.21.59.32.2.11.4.22.61.32.22.1.44.19.66.29.13.05.26.12.39.17.03.01.07.02.1.03.29.11.59.21.89.3.12.04.23.08.35.11.23.07.45.12.68.18.29.07.58.14.87.2.01,0,.02,0,.03,0,5.11,1,10.41-.33,13.67-4.29.79-.75,1.71-1.52,2.04-2.46.15-.42.32-.8.5-1.16,1.98-2.35,4.24-3.15,6.89-3.28.3.03.61.06.92.1.49.07,1,.01,1.5.01.39,0,.75,0,1.11,0,.8.06,1.6.09,2.4.04,3.56.14,4.76.78,6.43,3.71,2.07,4.51,4.62,8.81,6.56,13.37.44,1.03.94,1.92,1.51,2.66.71.97,1.55,1.69,2.54,2.17.14.07.29.14.44.21.09.04.18.08.27.11,1.31.5,2.84.65,4.62.46.42-.05.84-.06,1.27-.07.4,0,.79,0,1.19,0,.02,0,.04,0,.06,0,.14,0,.27,0,.41,0,.75.02,1.5.04,2.25.03.17,0,.34,0,.51,0,.03,0,.05,0,.08,0,.2,0,.38,0,.56.03.11.01.22.03.32.06.08.02.16.03.23.05.91.26,1.41.9,1.55,1.99.02.18.03.37.03.57-.01,2.93-.02,5.85-.02,8.78,0,.59,0,1.19,0,1.78,0,2.98,0,5.95.02,8.93,0,.18-.01.34-.03.49-.2,1.37-1.05,1.69-2.68,1.65-4.99-.14-10.01-.27-14.99.03-.36.02-.73.04-1.08.06-.39,0-.78,0-1.17.01-3.16.03-5.4-.77-7.22-3.96-.05-.09-.11-.17-.16-.26-.05-.12-.1-.23-.15-.36-.16-.45-.53-.82-.9-1.19-2.87-3.75-7.02-5.6-11.84-5.47-2.15-.01-4.32.42-6.39,1.3-.03.01-.05.02-.08.03-.24.1-.48.21-.72.33-.26.12-.5.25-.75.39-.07.04-.14.07-.21.11-.03.02-.05.04-.08.05-1.08.63-2.05,1.38-2.92,2.27-.11.11-.22.23-.33.35-.13.14-.27.29-.4.44-2.08,2.4-3.43,5.44-3.83,8.61-.03.23-.04.46-.06.69-.02.2-.04.4-.05.6,0,.22,0,.44,0,.67,0,.22,0,.44,0,.67,0,.2.03.4.05.6.02.23.03.46.06.69.4,3.17,1.75,6.21,3.83,8.61.13.15.26.29.4.44.11.12.21.24.33.35.87.88,1.85,1.64,2.92,2.27.03.02.05.04.08.05.07.04.14.07.21.11.25.14.49.27.75.39.24.12.48.23.72.33.03.01.05.02.08.03,2.07.88,4.24,1.31,6.39,1.3,4.82.13,8.96-1.72,11.84-5.47.36-.37.73-.75.9-1.19.05-.13.1-.24.15-.36.05-.09.11-.17.16-.26,1.83-3.18,4.06-3.99,7.22-3.96.39,0,.78,0,1.17.01.36.02.72.04,1.08.06,4.98.31,9.99.18,14.99.03,1.63-.05,2.49.28,2.68,1.65.02.15.03.31.03.49-.02,2.98-.02,5.95-.02,8.93,0,.59,0,1.19,0,1.78,0,2.93,0,5.85.02,8.78,0,.21-.01.39-.03.57-.15,1.08-.65,1.72-1.55,1.99-.07.02-.15.03-.23.05-.1.02-.21.04-.32.06-.18.02-.36.03-.56.03-.03,0-.05,0-.08,0-.17,0-.34,0-.51,0-.75-.02-1.5,0-2.25.03-.14,0-.27,0-.41,0-.02,0-.04,0-.06,0-.4,0-.79,0-1.19,0-.42,0-.85-.03-1.27-.07-1.78-.19-3.3-.04-4.62.46-.09.03-.18.08-.27.11-.15.06-.3.13-.44.21-.98.48-1.83,1.2-2.54,2.17-.57.75-1.07,1.63-1.51,2.66-1.94,4.56-4.49,8.86-6.56,13.37-1.68,2.94-2.87,3.58-6.43,3.71-.8-.05-1.61-.02-2.4.04-.36,0-.71,0-1.11,0-.5,0-1.01-.06-1.5.01-.31.04-.62.07-.92.1-2.64-.13-4.91-.93-6.89-3.28-.18-.35-.35-.73-.5-1.16-.33-.94-1.25-1.71-2.04-2.46-3.26-3.96-8.56-5.29-13.67-4.29-.01,0-.02,0-.03,0-.29.06-.58.12-.87.2-.23.06-.46.11-.68.18-.12.03-.23.07-.35.11-.3.09-.6.19-.89.3-.03.01-.07.02-.1.03-.13.05-.26.11-.39.17-.22.09-.44.18-.66.29-.21.1-.41.21-.61.32-.2.1-.4.2-.59.32-.04.03-.09.06-.13.08-.32.19-.64.39-.96.61-2.09,1.45-3.74,3.37-4.91,5.53-.02.04-.05.09-.07.13-.14.26-.27.52-.39.78-.13.27-.25.55-.36.83-.02.05-.04.1-.06.15-.82,2.07-1.23,4.29-1.08,6.49.2,2.95,1.23,5.71,2.88,8.03,2.52,3.76,6.13,6.11,10.85,6.69,2.06.32,4.14.22,6.11-.27,3.51-.81,6.45-2.8,8.6-5.97.02-.03.04-.05.05-.08.25-.37.48-.75.71-1.15,1.41-2.49,3.06-3.4,5.37-3.52.22,0,.43,0,.67,0,.81.04,1.61.05,2.42.04,1.96.03,3.93-.03,5.89-.03.39.02.78.05,1.17.09,1.43.15,2.72.13,3.89-.07,2.3-.26,4.05-1.29,5.37-3.21.74-.96,1.37-2.13,1.9-3.53.19-.5.39-1,.6-1.49,1-2.11,2.04-4.2,3.11-6.27.39-.73.77-1.46,1.14-2.19.48-.92.97-1.84,1.45-2.76.51-.95,1.3-2.12,2.16-2.69.24-.13.51-.25.79-.33,2.1-.39,4.35-.12,6.53.07,1.31.5,1.33,1.8,1.33,5.29,0,.11,0,.22,0,.33,0,5.87,0,9.74,0,15.6,0,23.71,0-2.58,0,21.14,0,1.5-.09,3.01.1,4.49.04.28.09.53.14.78.02.12.04.25.07.37,0,0,0,.02,0,.03.35,1.72,1.09,2.67,2.53,3.17.67.27,1.47.43,2.47.5,1.16.08,2.32.04,3.48.03,65.06,0,130.13,0,195.19,0,1,0,2.01.06,3-.04,2.87-.28,4.22-1.44,4.7-4.26.25-1.46.18-2.99.18-4.48,0-15.1,0-.19,0-15.29h0c0-5.09,0-9.77,0-14.3,0-9.63,0,2.75,0-6.88,0-1,.03-2,0-3,0-.6.03-1.19.1-1.78.04-.39.25-.95.49-1.3.11-.12.24-.23.38-.32,1.11-.1,2.25-.24,3.37-.3.4,0,.8,0,1.2-.03.79,0,1.57.05,2.33.19,1.13.21,2.26,1.76,2.9,2.97.56,1.05,1.11,2.11,1.66,3.16,1.89,3.77,3.87,7.5,5.57,11.35.27.61.57,1.14.89,1.63.16.27.33.51.51.74,0,0,.01.02.02.02,1.03,1.35,2.35,2.14,3.99,2.46.16.03.33.05.49.07.15.02.3.05.45.06.59.06,1.2.09,1.86.06.58-.03,1.17-.03,1.75-.04,3.18.01,6.36.13,9.52-.06.34-.02.67-.02.98,0,2.06.1,3.5.91,4.74,2.65.19.28.39.58.57.91.18.3.37.59.56.88,3.26,5.07,9.39,7.64,15.05,6.58.52-.08,1.04-.19,1.55-.32.64-.17,1.25-.39,1.85-.63,3.54-1.34,6.28-3.61,8.05-6.88,1.27-2.18,2.04-4.69,2.18-7.37.12-2.23-.39-4.52-1.36-6.65-.02-.05-.04-.1-.07-.16Zm-7.82,6.87c-.13,1.29-.65,2.49-1.45,3.49-.02.02-.04.05-.06.07-.1.12-.2.23-.3.34-.07.07-.13.14-.2.21-.06.06-.12.11-.18.17-1.25,1.13-2.91,1.81-4.68,1.76-2.91-.09-5.46-2.25-6.22-4.92,0-.02-.01-.04-.02-.07-.05-.17-.08-.35-.11-.53,0-.04-.02-.08-.02-.12-.03-.17-.04-.35-.05-.53,0-.04,0-.08,0-.12,0-.2,0-.4,0-.6,0,0,0-.02,0-.02.01-.19.04-.38.07-.57,0-.06.02-.12.03-.18.01-.06.03-.12.04-.19.35-1.58,1.33-3.01,2.62-3.99,1.2-.81,2.72-1.23,4.42-1.14,1.55.09,2.93.65,3.98,1.54.04.04.09.07.13.11.03.03.06.05.08.08,1.2,1.17,1.95,2.77,1.97,4.53,0,.22,0,.44-.03.65,0,0,0,0,0,.01Zm-30.16-57.13c0-.1,0-.2.02-.3,0-.09.03-.17.04-.26.02-.14.04-.27.07-.4,0-.01,0-.03.01-.04.49-2.06,2.04-3.86,3.98-4.75.78-.35,1.62-.55,2.49-.57,3.22-.07,6.2,2.7,6.6,5.95,0,0,0,.02,0,.03.02.15.02.3.03.45,0,.08.01.16.01.24,0,.08,0,.16-.01.24,0,.15-.01.3-.03.45,0,0,0,.02,0,.03-.39,3.25-3.38,6.02-6.6,5.95-.87-.02-1.71-.22-2.49-.57-1.94-.89-3.49-2.69-3.98-4.75,0-.01,0-.03-.01-.04-.03-.13-.05-.27-.07-.4-.01-.09-.03-.17-.04-.26-.01-.1-.01-.2-.02-.3,0-.12-.02-.23-.02-.35,0-.12.01-.23.02-.35Zm28.15-60.54c.07.07.14.14.2.21.1.11.21.22.3.34.02.02.04.05.06.07.79.99,1.32,2.2,1.45,3.49,0,0,0,0,0,.01.02.22.03.43.03.65-.02,1.77-.77,3.36-1.97,4.53-.03.03-.06.06-.08.08-.04.04-.09.07-.13.11-1.06.89-2.43,1.46-3.98,1.54-1.69.09-3.21-.33-4.42-1.14-1.29-.98-2.26-2.41-2.62-3.99-.01-.06-.03-.12-.04-.19-.01-.06-.02-.12-.03-.18-.03-.19-.05-.38-.07-.57,0,0,0-.02,0-.02-.01-.2-.01-.4,0-.6,0-.04,0-.08,0-.12.01-.18.03-.35.05-.53,0-.04.01-.08.02-.12.03-.18.07-.35.11-.53,0-.02.01-.05.02-.07.75-2.67,3.3-4.83,6.22-4.92,1.77-.05,3.43.63,4.68,1.76.06.05.12.11.18.17ZM10.82,35.47s-.01-.07-.02-.1c-.02-.13-.02-.27-.03-.41,0-.09-.01-.17-.01-.26,0-.17,0-.34.02-.51,0-.05,0-.09,0-.14.18-1.95,1.27-3.71,2.82-4.84.01,0,.02-.02.03-.03.12-.08.24-.16.36-.23.07-.05.15-.1.22-.14.06-.04.13-.07.19-.1.14-.07.28-.15.43-.21,0,0,.01,0,.02,0,.79-.34,1.65-.54,2.55-.54.9,0,1.77.19,2.57.54.02,0,.04.02.06.03.17.08.34.16.5.25.04.02.09.05.13.07.14.08.28.16.41.25.06.04.11.08.17.12.12.08.23.17.34.26.06.05.12.11.19.16.1.09.2.18.29.27.06.06.12.12.18.19.09.09.18.19.26.29.06.07.11.13.16.2.08.1.16.2.23.31.05.07.09.14.14.21.07.11.14.23.21.34.04.07.07.13.11.2.07.13.13.25.19.38.03.06.05.13.08.19.06.14.11.28.16.42.02.06.04.12.05.17.04.15.09.31.12.46.01.05.02.1.03.15.03.17.06.33.07.5,0,.04,0,.08,0,.12.01.18.02.37.02.55,0,.03,0,.06,0,.09,0,.17-.02.35-.04.52-.02.14-.03.28-.06.41,0,.02,0,.04-.01.07-.32,1.61-1.29,3.07-2.58,4.07-1.15.8-2.61,1.24-4.24,1.21-1.53-.03-2.89-.53-3.97-1.35-1.27-1.03-2.15-2.49-2.37-4.15Zm29.82,55.66c0,.13,0,.26-.02.38,0,.09-.02.19-.04.28-.02.14-.04.28-.06.41-.01.08-.03.15-.05.22-.03.15-.07.3-.11.44-.02.06-.04.12-.06.18-.05.15-.1.31-.16.45-.02.05-.04.1-.07.15-.07.15-.13.3-.21.44-.02.05-.05.09-.08.14-.08.14-.16.28-.25.41-.03.05-.07.1-.1.15-.09.12-.17.24-.26.36-.05.06-.1.12-.15.17-.08.1-.17.2-.26.29-.07.07-.15.14-.22.21-.07.07-.15.14-.23.2-.1.09-.21.17-.32.24-.06.04-.11.08-.17.12-.14.09-.28.18-.42.26-.03.02-.06.04-.1.06-.17.09-.35.18-.53.26,0,0-.02,0-.03.01-.57.24-1.18.4-1.83.47-.03,0-.05,0-.08,0-.16.01-.32.02-.48.02-.08,0-.16,0-.24,0-.1,0-.2-.01-.3-.02-.11,0-.23-.01-.34-.03-.11-.01-.23-.04-.34-.06-.09-.02-.17-.03-.25-.05-.15-.03-.29-.08-.43-.12-.04-.01-.09-.03-.13-.04-.18-.06-.35-.13-.52-.2,0,0-.01,0-.02,0-.93-.42-1.77-1.06-2.45-1.84-.01-.02-.03-.03-.04-.05-.11-.13-.22-.27-.32-.41-.05-.07-.1-.14-.14-.21-.06-.09-.12-.18-.18-.28-.08-.14-.16-.28-.24-.43-.02-.03-.03-.06-.05-.09-.44-.88-.68-1.85-.68-2.85,0-1,.25-1.97.68-2.85.02-.03.03-.06.05-.09.08-.15.15-.29.24-.43.06-.09.12-.19.18-.28.05-.07.09-.14.14-.21.1-.14.21-.28.32-.41.01-.02.03-.03.04-.05.68-.79,1.52-1.43,2.45-1.84,0,0,.01,0,.02,0,.17-.08.34-.14.52-.2.04-.01.09-.03.13-.04.14-.05.29-.09.43-.12.08-.02.17-.04.25-.05.11-.02.22-.04.34-.06.11-.01.22-.02.34-.03.1,0,.2-.02.3-.02.08,0,.16,0,.24,0,.16,0,.32,0,.48.02.03,0,.05,0,.08,0,.65.07,1.26.23,1.83.47,0,0,.02,0,.03.01.18.08.36.16.53.26.03.02.06.04.1.06.14.08.29.17.42.26.06.04.11.08.17.12.11.08.21.16.32.24.08.07.15.14.23.2.07.07.15.14.22.21.09.09.17.19.26.29.05.06.1.11.15.17.09.12.18.24.26.36.03.05.07.1.1.15.09.13.17.27.25.41.03.05.05.09.08.14.08.14.14.29.21.44.02.05.05.1.07.15.06.15.11.3.16.45.02.06.04.12.06.18.04.14.08.29.11.44.02.07.04.15.05.22.03.14.04.28.06.41.01.09.03.18.04.28.01.13.02.26.02.38,0,.11.01.22.01.33,0,.11,0,.22-.01.33Zm-16.57,56.53c-.02.17-.04.34-.07.5,0,.05-.02.1-.03.15-.03.16-.07.31-.12.46-.02.06-.03.12-.05.17-.05.14-.1.28-.16.42-.03.06-.05.13-.08.19-.06.13-.12.26-.19.38-.04.07-.07.14-.11.2-.07.12-.14.23-.21.34-.05.07-.09.14-.14.21-.07.11-.15.21-.23.31-.05.07-.11.14-.16.2-.08.1-.17.19-.26.29-.06.06-.12.13-.18.19-.1.09-.19.18-.29.27-.06.05-.12.11-.19.16-.11.09-.23.18-.34.26-.06.04-.11.08-.17.12-.13.09-.27.17-.41.25-.04.02-.09.05-.13.07-.16.09-.33.17-.5.25-.02,0-.04.02-.06.03-.8.34-1.67.54-2.57.54-.9,0-1.76-.2-2.55-.54,0,0-.01,0-.02,0-.15-.06-.29-.14-.43-.21-.06-.03-.13-.06-.19-.1-.08-.04-.15-.09-.22-.14-.12-.08-.24-.15-.36-.23-.01,0-.02-.02-.03-.03-1.55-1.13-2.63-2.89-2.82-4.84,0-.04,0-.09,0-.14-.01-.17-.02-.34-.02-.51,0-.09.01-.17.01-.26,0-.14.01-.27.03-.41,0-.03.01-.07.02-.1.22-1.66,1.1-3.13,2.37-4.15,1.07-.82,2.43-1.31,3.97-1.35,1.63-.04,3.09.41,4.24,1.21,1.3,1.01,2.26,2.47,2.58,4.07,0,.02,0,.04.01.07.03.14.04.27.06.41.02.17.03.34.04.52,0,.03,0,.06,0,.09,0,.18,0,.37-.02.55,0,.04,0,.08,0,.12Zm246.9,24.19c-60.31,0-120.62,0-180.93,0-1.59,0-2.76.01-3.66-.03-2.6-.13-2.68-.79-2.63-3.96,0-.6.02-1.3.02-2.1-.02-35.82-.01-19.63,0-55.44,0-6.51,0-13.02,0-19.54s0-13.02,0-19.54c0-35.82,0-18.63,0-54.44,0-.8-.01-1.49-.02-2.1-.05-3.17.03-3.82,2.63-3.96.89-.04,2.07-.03,3.66-.03,60.31,0,120.62,0,180.93,0,7.07,0,6.23-.35,6.23,6.12,0,14.78,0,4.74,0,19.24,0,0,0,0,0,0,0,28.15,0,27.3,0,54.69,0,27.39,0,32.91,0,61.06,0,0,0,0,0,0,0,14.5,0-.9,0,13.88,0,6.47.84,6.12-6.23,6.12Z"/>
      </g>
    </g>
  </g>
</svg>