<?xml version="1.0" encoding="UTF-8"?>
<svg id="Capa_2" data-name="Capa 2" xmlns="http://www.w3.org/2000/svg" xmlns:xlink="http://www.w3.org/1999/xlink" viewBox="0 0 995.33 151.1">
  <defs>
    <style>
      .cls-1 {
        fill: url(#Nueva_muestra_de_degradado_1-2);
      }

      .cls-1, .cls-2, .cls-3, .cls-4 {
        stroke-width: 0px;
      }

      .cls-2 {
        fill: url(#Nueva_muestra_de_degradado_1-3);
      }

      .cls-3 {
        fill: #fff;
      }

      .cls-4 {
        fill: url(#Nueva_muestra_de_degradado_1);
      }
    </style>
    <linearGradient id="Nueva_muestra_de_degradado_1" data-name="Nueva muestra de degradado 1" x1="627.79" y1="52.39" x2="762.34" y2="52.39" gradientUnits="userSpaceOnUse">
      <stop offset="0" stop-color="#00a99d"/>
      <stop offset=".51" stop-color="#76c3a8"/>
      <stop offset=".78" stop-color="#76dba8"/>
      <stop offset="1" stop-color="#76e9a8"/>
    </linearGradient>
    <linearGradient id="Nueva_muestra_de_degradado_1-2" data-name="Nueva muestra de degradado 1" x1="735.65" x2="873.01" xlink:href="#Nueva_muestra_de_degradado_1"/>
    <linearGradient id="Nueva_muestra_de_degradado_1-3" data-name="Nueva muestra de degradado 1" x1="848.01" x2="995.33" xlink:href="#Nueva_muestra_de_degradado_1"/>
  </defs>
  <g id="Capa_1-2" data-name="Capa 1">
    <g>
      <g>
        <path class="cls-3" d="m0,101.97L5.19,2.8c.09-1.87,1.12-2.8,3.09-2.8h29.17c1.96,0,2.9.94,2.81,2.8l-4.49,53.3c-.19,2.52-.61,4.98-1.26,7.36-.66,2.38-1.54,4.93-2.67,7.64h.28c1.12-2.71,2.15-5.26,3.09-7.64.93-2.38,2.34-4.84,4.21-7.36L80.37,2.8c1.5-1.87,3.18-2.8,5.05-2.8h33.24c1.21,0,1.82.28,1.82.84s-.33,1.22-.98,1.96L40.26,101.97c-1.31,1.87-2.99,2.81-5.05,2.81H2.81c-1.87,0-2.81-.93-2.81-2.81Z"/>
        <path class="cls-3" d="m89.07,91.59c0-4.21,1.31-9.35,3.93-15.43l20.06-47.13c2.43-5.8,4.84-10.57,7.22-14.31,2.38-3.74,5.03-6.71,7.92-8.91,2.9-2.2,6.24-3.72,10.03-4.56,3.79-.84,8.35-1.26,13.68-1.26h48.67c12.15,0,18.23,4.4,18.23,13.18,0,4.4-1.31,9.68-3.93,15.85l-20.06,47.13c-2.43,5.7-4.82,10.4-7.15,14.1-2.34,3.7-4.96,6.62-7.85,8.77-2.9,2.15-6.24,3.65-10.03,4.49s-8.35,1.26-13.68,1.26h-48.67c-12.25,0-18.38-4.39-18.38-13.19Zm43.2-16.41h24.13c2.43,0,4.25-1.49,5.47-4.49l15.71-36.61c.47-1.21.7-2.1.7-2.67,0-1.21-.84-1.82-2.52-1.82h-24.13c-2.43,0-4.26,1.5-5.47,4.49l-15.71,36.61c-.47,1.22-.7,2.1-.7,2.67,0,1.22.84,1.82,2.52,1.82Z"/>
        <path class="cls-3" d="m224,101.83l30.72-72.52h-28.75c-1.87,0-2.43-.98-1.68-2.95l9.96-23.42c.93-1.96,2.34-2.95,4.21-2.95h92.86c1.4,0,2.1.42,2.1,1.26,0,.38-.14.94-.42,1.68l-9.96,23.42c-.75,1.96-2.15,2.95-4.21,2.95h-27.35l-30.72,72.52c-.75,1.96-2.15,2.95-4.21,2.95h-30.86c-1.87,0-2.43-.98-1.68-2.95Z"/>
        <path class="cls-3" d="m326.4,101.83l30.72-72.52h-28.75c-1.87,0-2.43-.98-1.68-2.95l9.96-23.42c.93-1.96,2.34-2.95,4.21-2.95h92.86c1.4,0,2.1.42,2.1,1.26,0,.38-.14.94-.42,1.68l-9.96,23.42c-.75,1.96-2.15,2.95-4.21,2.95h-27.35l-30.72,72.52c-.75,1.96-2.15,2.95-4.21,2.95h-30.86c-1.87,0-2.43-.98-1.68-2.95Z"/>
        <path class="cls-3" d="m405.93,92.29c0-2.8.75-5.98,2.24-9.54L441.98,2.95c.93-1.96,2.34-2.95,4.21-2.95h29.18c1.4,0,2.1.42,2.1,1.26,0,.38-.14.94-.42,1.68l-28.75,67.75c-.47,1.12-.7,1.96-.7,2.52,0,1.31.89,1.96,2.67,1.96h24.97c2.43,0,4.25-1.49,5.47-4.49L509.45,2.95c.93-1.96,2.34-2.95,4.21-2.95h29.18c1.4,0,2.1.42,2.1,1.26,0,.38-.14.94-.42,1.68l-33.8,79.81c-1.87,4.4-3.77,8.02-5.68,10.87-1.92,2.85-4.14,5.1-6.66,6.73-2.52,1.64-5.49,2.78-8.91,3.44-3.41.66-7.6.98-12.55.98h-53.58c-5.33,0-9.56-1.03-12.69-3.09-3.13-2.06-4.7-5.19-4.7-9.4Z"/>
        <path class="cls-3" d="m512.67,101.83L554.61,2.95c.93-1.96,2.34-2.95,4.21-2.95h34.65c1.87,0,2.99.84,3.37,2.52l7.57,38.43c.28,1.31.33,3.6.14,6.87.56-1.87,1.24-3.79,2.03-5.75.79-1.96,1.71-4.16,2.74-6.59l13.75-32.54c.75-1.96,2.15-2.95,4.21-2.95h29.18c1.4,0,2.1.42,2.1,1.26,0,.38-.14.94-.42,1.68l-41.94,98.89c-.75,1.96-2.15,2.95-4.21,2.95h-25.81c-1.96,0-3.09-.84-3.37-2.53l-10.66-52.04c-.19-.65-.33-1.54-.42-2.67-.09-1.12-.05-2.48.14-4.07-.56,2.15-1.22,4.16-1.96,6.03-.75,1.87-1.59,3.88-2.52,6.03l-19.64,46.29c-.75,1.96-2.15,2.95-4.21,2.95h-29.18c-1.87,0-2.43-.98-1.68-2.95Z"/>
        <path class="cls-4" d="m628.11,101.83l10.1-23.71c.75-1.96,2.15-2.95,4.21-2.95h55.97c2.52,0,4.44-1.59,5.75-4.77l.28-.56c.37-.84.56-1.63.56-2.38,0-1.21-.89-1.82-2.67-1.82h-35.35c-6.73,0-11.67-.86-14.8-2.59-3.13-1.73-4.7-4.42-4.7-8.07,0-2.52.7-5.47,2.1-8.84l10.66-25.11c1.87-4.3,3.74-7.81,5.61-10.52,1.87-2.71,4.11-4.84,6.73-6.38,2.62-1.54,5.73-2.62,9.33-3.23,3.6-.61,8.02-.91,13.25-.91h65.08c1.4,0,2.1.42,2.1,1.26,0,.38-.14.94-.42,1.68l-9.96,23.42c-.75,1.96-2.15,2.95-4.21,2.95h-51.9c-2.52,0-4.4,1.5-5.61,4.49l-.28.56c-.47,1.12-.7,1.96-.7,2.52,0,1.31.89,1.96,2.67,1.96h36.75c12.16,0,18.24,3.6,18.24,10.8,0,2.71-.84,6.03-2.53,9.96l-11.08,25.95c-1.59,3.74-3.27,6.85-5.05,9.33-1.78,2.48-3.91,4.47-6.38,5.96-2.48,1.5-5.38,2.52-8.7,3.09-3.32.56-7.36.84-12.13.84h-71.26c-1.87,0-2.43-.98-1.68-2.95Z"/>
        <path class="cls-1" d="m735.97,101.83L777.91,2.95c.93-1.96,2.34-2.95,4.21-2.95h72.52c12.25,0,18.38,4.63,18.38,13.89,0,4.3-1.22,9.21-3.65,14.73l-19.92,46.99c-2.43,5.71-4.86,10.45-7.29,14.24-2.43,3.79-5.14,6.78-8.14,8.98-2.99,2.2-6.45,3.74-10.38,4.63-3.93.89-8.65,1.33-14.17,1.33h-71.82c-1.87,0-2.43-.98-1.68-2.95Zm73.92-26.65c2.53,0,4.39-1.49,5.61-4.49l15.71-36.89c.47-1.12.7-1.96.7-2.52,0-1.31-.89-1.96-2.67-1.96h-27.49l-19.36,45.87h27.49Z"/>
        <path class="cls-2" d="m848.33,101.83L890.27,2.95c.93-1.96,2.34-2.95,4.21-2.95h28.61c1.4,0,2.1.42,2.1,1.26,0,.38-.14.94-.42,1.68l-15.15,35.91,40.68-36.61c1.03-.84,2.01-1.42,2.95-1.75.93-.33,1.92-.49,2.95-.49h37.59c1.03,0,1.54.19,1.54.56,0,.28-.52.84-1.54,1.68l-57.09,50.36,16.97,50.08c.28.84.3,1.4.07,1.68-.24.28-.87.42-1.89.42h-39.13c-2.15,0-3.46-.75-3.93-2.24l-10.8-36.47-15.15,35.77c-.75,1.96-2.15,2.95-4.21,2.95h-28.61c-1.87,0-2.43-.98-1.68-2.95Z"/>
      </g>
      <g>
        <path class="cls-3" d="m611.52,142.24l2.41-5.69c.22-.46.54-.68.97-.68h.58l8.57-20.16c.17-.46.49-.68.97-.68h6.88c.43,0,.56.23.4.68l-3.85,9.04,3.28-1.26c.53-.19,1.01-.29,1.44-.29h4.28c2.59,0,3.89.97,3.89,2.92,0,.84-.23,1.8-.68,2.88l-3.46,8.17c-.48,1.1-.97,2.03-1.46,2.77s-1.05,1.34-1.67,1.78c-.62.44-1.34.76-2.14.94-.8.18-1.76.27-2.86.27h-4.07c-.24,0-.44-.03-.61-.09-.17-.06-.34-.15-.5-.27l-2.48-1.94-.65,1.55c-.19.5-.55.76-1.08.76h-7.74c-.43,0-.56-.23-.4-.68Zm12.2-6.37h4.82c.58,0,.99-.34,1.26-1.01l1.55-3.6c.1-.22.14-.41.14-.58,0-.29-.19-.43-.58-.43h-4.82l-2.38,5.62Z"/>
        <path class="cls-3" d="m634.99,150.41l2.41-5.69c.17-.46.49-.68.97-.68h4.82l.14-.14c-.34,0-.53-.07-.59-.2-.06-.13-.09-.37-.09-.7v-19.15c0-.43.24-.65.72-.65h6.91c.41,0,.61.22.61.65l-.36,9.25c-.02.48-.13.97-.31,1.46-.18.49-.38.99-.59,1.49h.07c.22-.5.47-1,.76-1.48s.61-.96.97-1.44l6.88-9.29c.34-.43.74-.65,1.22-.65h8.21c.26,0,.4.07.4.22,0,.07-.08.22-.25.43l-20.99,26.6c-.36.43-.76.65-1.19.65h-10.33c-.48,0-.61-.23-.4-.68Z"/>
        <path class="cls-3" d="m674.52,142.17l10.76-25.38c.24-.5.6-.76,1.08-.76h10.58c.53,0,.74.24.65.72l-1.66,9.32c-.05.19-.11.52-.18.99-.07.47-.2.92-.4,1.35h.07c.1-.22.22-.45.38-.7.16-.25.31-.5.45-.74.14-.24.28-.44.4-.61.12-.17.19-.26.22-.29l6.26-9.32c.19-.26.38-.45.56-.56s.4-.16.67-.16h11.95c.36,0,.54.11.54.32,0,.1-.04.24-.11.43l-10.76,25.38c-.19.5-.55.76-1.08.76h-7.09c-.48,0-.62-.25-.43-.76l5-11.81c.19-.41.37-.81.54-1.21s.35-.77.54-1.13l-9.4,14.18c-.19.26-.38.45-.56.56-.18.11-.4.16-.67.16h-5.76c-.5,0-.72-.24-.65-.72l2.66-14.18c-.14.43-.28.81-.41,1.13-.13.32-.26.62-.38.88l-5.15,12.13c-.19.5-.55.76-1.08.76h-7.13c-.48,0-.62-.25-.43-.76Z"/>
        <path class="cls-3" d="m709.94,140.01c0-.77.24-1.73.72-2.88l3.24-7.59c.55-1.3,1.12-2.36,1.71-3.19.59-.83,1.25-1.48,2-1.94.74-.47,1.6-.79,2.56-.95.96-.17,2.09-.25,3.38-.25h8.35c1.66,0,2.87.26,3.64.77.77.52,1.15,1.28,1.15,2.29,0,.86-.25,1.87-.76,3.02l-1.44,3.35c-.29.7-.65,1.2-1.1,1.51-.44.31-1.01.47-1.71.47h-11.59l-.14.29c-.12.22-.18.42-.18.61,0,.24.18.36.54.36h10.11c.48,0,.61.23.4.68l-2.41,5.69c-.17.46-.49.68-.97.68h-13.25c-1.46,0-2.54-.25-3.22-.74-.68-.49-1.03-1.22-1.03-2.18Zm17.42-8.78l.18-.4c.12-.26.14-.43.05-.49-.08-.06-.29-.09-.63-.09h-4.28c-.34,0-.57.05-.7.16s-.29.38-.49.81h5.87Z"/>
        <path class="cls-3" d="m734.74,140.19c0-.55.1-1.17.31-1.85.2-.68.47-1.45.81-2.29l2.45-5.8h-1.12c-.43,0-.56-.23-.4-.68l2.45-5.69c.17-.46.49-.68.97-.68h1.12l2.74-6.48c.22-.46.54-.68.97-.68h7.06c.48,0,.61.23.4.68l-2.74,6.48h4.07c.48,0,.61.23.4.68l-2.45,5.69c-.22.46-.54.68-.97.68h-4.07l-1.94,4.61c-.12.29-.18.5-.18.65,0,.24.18.36.54.36h5.87c.48,0,.61.23.4.68l-2.41,5.69c-.17.46-.49.68-.97.68h-9.25c-1.46,0-2.5-.23-3.11-.7-.61-.47-.92-1.15-.92-2.03Z"/>
        <path class="cls-3" d="m752.52,136.59l3.2-7.6c.48-1.1.98-2.03,1.49-2.77.52-.74,1.09-1.34,1.73-1.78.64-.44,1.36-.76,2.16-.95.8-.19,1.72-.29,2.75-.29h4.32c.48,0,.86.1,1.15.29l2.16,1.26.4-.86c.17-.46.49-.68.97-.68h6.88c.43,0,.56.23.4.68l-5.11,11.99h.61c.48,0,.61.23.4.68l-2.41,5.69c-.17.46-.49.68-.97.68h-3.78c-.46,0-.83-.11-1.12-.32l-2.59-1.98-4.25,1.98c-.26.12-.5.2-.72.25-.22.05-.44.07-.68.07h-4.03c-1.34,0-2.33-.23-2.95-.7-.62-.47-.94-1.16-.94-2.07s.31-2.1.94-3.56Zm8.89-1.12c0,.26.17.4.5.4h4.86l2.38-5.62h-4.86c-.53,0-.92.34-1.19,1.01l-1.55,3.6c-.1.22-.14.42-.14.61Z"/>
        <path class="cls-3" d="m775.52,142.17l2.59-6.08c.19-.5.55-.76,1.08-.76h14.36c.65,0,1.14-.41,1.48-1.22l.07-.14c.1-.22.14-.42.14-.61,0-.31-.23-.47-.68-.47h-9.07c-1.73,0-2.99-.22-3.8-.67-.8-.44-1.21-1.13-1.21-2.07,0-.65.18-1.4.54-2.27l2.74-6.44c.48-1.1.96-2,1.44-2.7s1.06-1.24,1.73-1.64c.67-.4,1.47-.67,2.39-.83.92-.16,2.06-.23,3.4-.23h16.7c.36,0,.54.11.54.32,0,.1-.04.24-.11.43l-2.56,6.01c-.19.5-.55.76-1.08.76h-13.32c-.65,0-1.13.38-1.44,1.15l-.07.14c-.12.29-.18.5-.18.65,0,.34.23.5.68.5h9.43c3.12,0,4.68.92,4.68,2.77,0,.7-.22,1.55-.65,2.56l-2.84,6.66c-.41.96-.84,1.76-1.3,2.39-.46.64-1,1.15-1.64,1.53-.64.38-1.38.65-2.23.79-.85.14-1.89.22-3.11.22h-18.29c-.48,0-.62-.25-.43-.76Z"/>
        <path class="cls-3" d="m803.17,142.24l11.27-26.53c.17-.46.49-.68.97-.68h6.88c.43,0,.56.23.4.68l-6.08,14.33,6.34-6.26c.38-.38.82-.58,1.3-.58h8.24c.24,0,.36.05.36.14,0,.07-.11.22-.32.43l-9.72,9.61,1.87,8.96c.07.38-.12.58-.58.58h-7.95c-.46,0-.72-.19-.79-.58l-1.12-6.77-2.81,6.66c-.17.46-.49.68-.97.68h-6.88c-.43,0-.56-.23-.4-.68Z"/>
        <path class="cls-3" d="m826.42,140.01c0-.77.24-1.73.72-2.88l3.24-7.59c.55-1.3,1.12-2.36,1.71-3.19.59-.83,1.25-1.48,2-1.94.74-.47,1.6-.79,2.56-.95.96-.17,2.09-.25,3.38-.25h8.35c1.66,0,2.87.26,3.64.77.77.52,1.15,1.28,1.15,2.29,0,.86-.25,1.87-.76,3.02l-1.44,3.35c-.29.7-.65,1.2-1.1,1.51-.44.31-1.01.47-1.71.47h-11.59l-.14.29c-.12.22-.18.42-.18.61,0,.24.18.36.54.36h10.11c.48,0,.61.23.4.68l-2.41,5.69c-.17.46-.49.68-.97.68h-13.25c-1.46,0-2.54-.25-3.22-.74-.68-.49-1.03-1.22-1.03-2.18Zm17.42-8.78l.18-.4c.12-.26.14-.43.05-.49-.08-.06-.29-.09-.63-.09h-4.28c-.34,0-.57.05-.7.16s-.29.38-.49.81h5.87Z"/>
        <path class="cls-3" d="m850.25,140.19c0-.55.1-1.17.31-1.85.2-.68.47-1.45.81-2.29l8.64-20.34c.17-.46.49-.68.97-.68h6.88c.43,0,.56.23.4.68l-8.14,19.15c-.12.29-.18.5-.18.65,0,.24.18.36.54.36h2.63c.48,0,.61.23.4.68l-2.41,5.69c-.17.46-.49.68-.97.68h-5.83c-1.46,0-2.5-.23-3.11-.7-.61-.47-.92-1.15-.92-2.03Z"/>
        <path class="cls-3" d="m863.82,140.01c0-.77.24-1.73.72-2.88l3.24-7.59c.55-1.3,1.12-2.36,1.71-3.19.59-.83,1.25-1.48,2-1.94.74-.47,1.6-.79,2.56-.95.96-.17,2.09-.25,3.38-.25h8.35c1.66,0,2.87.26,3.64.77.77.52,1.15,1.28,1.15,2.29,0,.86-.25,1.87-.76,3.02l-1.44,3.35c-.29.7-.65,1.2-1.1,1.51-.44.31-1.01.47-1.71.47h-11.59l-.14.29c-.12.22-.18.42-.18.61,0,.24.18.36.54.36h10.11c.48,0,.61.23.4.68l-2.41,5.69c-.17.46-.49.68-.97.68h-13.25c-1.46,0-2.54-.25-3.22-.74-.68-.49-1.03-1.22-1.03-2.18Zm17.42-8.78l.18-.4c.12-.26.14-.43.05-.49-.08-.06-.29-.09-.63-.09h-4.28c-.34,0-.57.05-.7.16s-.29.38-.49.81h5.87Z"/>
        <path class="cls-3" d="m888.62,140.19c0-.55.1-1.17.31-1.85.2-.68.47-1.45.81-2.29l2.45-5.8h-1.12c-.43,0-.56-.23-.4-.68l2.45-5.69c.17-.46.49-.68.97-.68h1.12l2.74-6.48c.22-.46.54-.68.97-.68h7.06c.48,0,.61.23.4.68l-2.74,6.48h4.07c.48,0,.61.23.4.68l-2.45,5.69c-.22.46-.54.68-.97.68h-4.07l-1.94,4.61c-.12.29-.18.5-.18.65,0,.24.18.36.54.36h5.87c.48,0,.61.23.4.68l-2.41,5.69c-.17.46-.49.68-.97.68h-9.25c-1.46,0-2.5-.23-3.11-.7-.61-.47-.92-1.15-.92-2.03Z"/>
        <path class="cls-3" d="m905.76,139.43c0-.89.22-1.84.65-2.84l3.17-7.52c.46-1.1.94-2.03,1.44-2.77s1.07-1.34,1.71-1.8c.64-.46,1.36-.79,2.18-.99.82-.2,1.76-.31,2.84-.31h10.22c1.39,0,2.47.26,3.24.79.77.53,1.15,1.33,1.15,2.41,0,.77-.22,1.66-.65,2.66l-3.17,7.52c-.48,1.15-1.01,2.13-1.58,2.93-.58.8-1.24,1.46-1.98,1.96-.74.5-1.58.87-2.52,1.1-.94.23-2,.34-3.2.34h-9.83c-1.25,0-2.17-.33-2.77-.99-.6-.66-.9-1.49-.9-2.5Zm10.01-3.56h4.03c.55,0,.96-.34,1.22-1.01l1.55-3.6c.1-.22.14-.42.14-.61,0-.26-.18-.4-.54-.4h-4.03c-.55,0-.96.34-1.22,1.01l-1.55,3.6c-.1.22-.14.42-.14.61,0,.26.18.4.54.4Z"/>
        <path class="cls-3" d="m928.65,142.24l5.08-11.99h-.58c-.43,0-.56-.23-.4-.68l2.45-5.69c.17-.46.49-.68.97-.68h8.03c.43,0,.56.23.4.68l-.43.97,3.1-1.33c.48-.22.95-.32,1.4-.32h3.49c1.13,0,1.96.16,2.48.49.53.32.79.85.79,1.57,0,.62-.23,1.49-.68,2.59l-3.13,7.38c-.17.46-.49.68-.97.68h-6.55c-.48,0-.61-.23-.4-.68l1.69-3.96c.12-.29.18-.49.18-.61,0-.26-.19-.4-.58-.4h-2.92l-5.08,11.99c-.17.46-.49.68-.97.68h-6.98c-.43,0-.56-.23-.4-.68Z"/>
      </g>
    </g>
  </g>
</svg>