<?xml version="1.0" encoding="UTF-8"?>
<svg id="Capa_2" data-name="Capa 2" xmlns="http://www.w3.org/2000/svg" xmlns:xlink="http://www.w3.org/1999/xlink" viewBox="0 0 292.59 134.4">
  <defs>
    <style>
      .cls-1 {
        stroke: url(#Nueva_muestra_de_degradado_1-2);
      }

      .cls-1, .cls-2 {
        fill: none;
        stroke-linecap: round;
        stroke-linejoin: round;
        stroke-width: 3px;
      }

      .cls-2 {
        stroke: url(#Nueva_muestra_de_degradado_1);
      }
    </style>
    <linearGradient id="Nueva_muestra_de_degradado_1" data-name="Nueva muestra de degradado 1" x1="109.71" y1="64.56" x2="176.92" y2="64.56" gradientUnits="userSpaceOnUse">
      <stop offset="0" stop-color="#00a99d"/>
      <stop offset=".51" stop-color="#76c3a8"/>
      <stop offset=".78" stop-color="#76dba8"/>
      <stop offset="1" stop-color="#76e9a8"/>
    </linearGradient>
    <linearGradient id="Nueva_muestra_de_degradado_1-2" data-name="Nueva muestra de degradado 1" x1="0" y1="67.2" x2="292.59" y2="67.2" xlink:href="#Nueva_muestra_de_degradado_1"/>
  </defs>
  <g id="Capa_1-2" data-name="Capa 1">
    <g>
      <path class="cls-2" d="m143.73,32.45c-.22,0-.44,0-.65,0-8.19,0-15.98,3.16-22,8.95-6.2,5.97-9.71,13.94-9.86,22.44-.16,8.63,3.06,16.8,9.06,23.01,6.02,6.22,14.12,9.72,22.8,9.84,17.22.24,32.02-14.08,32.35-31.3.34-18.09-13.58-32.56-31.69-32.93Zm-5.05,50.55l-6.28-15.15h-9.45l7.65,17.25-9.77-5.69c-.88-.51-1.42-1.43-1.42-2.43v-24.62c0-.99.54-1.92,1.42-2.43l20.98-12.21c.93-.54,2.08-.54,3.01,0l6.76,3.93-12.9,41.34Zm27.12-3.58l-20.98,12.21c-.12.07-.24.13-.37.18l14.64-45.78,6.71,3.91c.88.51,1.42,1.43,1.42,2.43v24.62c0,.99-.54,1.92-1.42,2.43Z"/>
      <path class="cls-1" d="m289.13,33.09l-13.19-7.62-13.19-7.62c-2.61-1.51-5.87.38-5.87,3.39v10.46c-.1,0-.19,0-.29.01-.95.04-1.94.08-2.85-.05-5.57-.8-10.46.88-15.38,5.3-3.54,3.18-7.47,6.09-11.27,8.9l-1.38,1.02c-1.16.86-2.4,1.38-3.31,1.4-6.98.11-14.04.1-20.86.08-1.62,0-7.02,0-9.98,0-1.34-4-3.17-7.77-5.41-11.26l3.33-3.04c3.27-2.79,6.65-5.68,10.07-8.48.2-.17.79-.37,1.75-.39,2.69-.06,5.4-.05,8.02-.04.63,0,1.26,0,1.88,0v10.73c0,3.01,3.26,4.9,5.87,3.39l13.19-7.62,13.19-7.62c2.61-1.51,2.61-5.27,0-6.78l-13.19-7.62-13.19-7.62c-2.61-1.51-5.87.38-5.87,3.39v10.3c-.59,0-1.18.02-1.78.03-2.15.05-4.36.1-6.52-.09-4.35-.38-7.99.97-11.46,4.26-2.62,2.48-5.45,4.83-8.19,7.1-.77.64-2.04,1.77-2.98,2.57-9.28-9.81-22.41-15.94-36.99-15.94-16.33,0-30.86,7.7-40.17,19.65-1.64,2.11-3.13,4.34-4.43,6.69-2.67,4.84-4.57,10.16-5.55,15.8-.5,2.85-.77,5.78-.77,8.78,0,.47.02.93.04,1.4,0,1.41,0,2.83.02,4.31.01.8.02,1.62.03,2.46-.72.01-1.45.04-2.19.06-2.71.08-5.52.17-8.24-.14-10.92-1.27-19.51,1.66-26.25,8.94-.47.5-.8.72-1,.8-.23.1-.46.21-.69.32-.76.36-1.55.73-2.16.74-4.33.09-8.71.07-12.94.06-1.09,0-2.18,0-3.26,0v-10.03c0-3.01-3.26-4.9-5.87-3.39l-13.19,7.62-13.19,7.62c-2.61,1.51-2.61,5.27,0,6.78l13.19,7.62,13.19,7.62c2.61,1.51,5.87-.38,5.87-3.39v-11.35c.73-.01,1.46-.03,2.2-.05,2.45-.07,4.98-.14,7.41.12,8.45.92,15.13-1.36,20.4-6.98.73-.78,1.71-1.54,2.99-2.31.78-.47,1.86-1.12,2.61-1.13,6.35-.08,12.71-.08,18.86-.07h4.84s1.47,2.46,1.47,2.46c1.8,4.2,4.16,8.11,6.98,11.64l1.31,2.19-2.16,1.84c-2.95,2.51-6.01,5.11-9.09,7.64-.72.59-1.5.98-1.98.99-5.89.08-11.82.07-17.55.06h-4.08v-10.5c0-3.01-3.26-4.9-5.87-3.39l-13.19,7.62-13.19,7.62c-2.61,1.51-2.61,5.27,0,6.78l13.19,7.62,13.19,7.62c2.61,1.51,5.87-.38,5.87-3.39v-10.5c1.52,0,3.04-.03,4.58-.05,4.29-.06,8.72-.12,13.08.14,5.97.35,10.54-1.31,14.38-5.23,2.24-2.29,4.72-4.3,7.35-6.42.88-.71,1.77-1.43,2.64-2.15.17.12.34.23.51.35,11.37,7.99,22.92,11.31,35.24,10.12,6.76-.66,12.95-2.4,18.54-5.19.23-.12.46-.23.69-.35.39-.2.78-.42,1.17-.63.39-.22.77-.43,1.15-.66.3-.18.59-.35.88-.54.36-.23.72-.46,1.08-.69.39-.26.77-.51,1.15-.78.18-.13.36-.26.55-.39,9.37-6.72,16.37-16.53,19.5-27.95.04-.16.09-.31.13-.47.07-.24.12-.48.18-.72.97-3.93,1.5-8.04,1.5-12.27,0-2.29-.17-4.54-.46-6.75,2.45,0,8.8-.02,10.46-.03,5.73-.04,11.14-.07,16.65.1,4.27.13,7.56-1,10.65-3.66,2.03-1.75,4.22-3.41,6.34-5.02,2.12-1.61,4.3-3.27,6.37-5.04,2.97-2.54,5.75-3.5,9.01-3.1,1.16.14,2.32.1,3.35.07.1,0,.19,0,.29,0v10.56c0,3.01,3.26,4.9,5.87,3.39l13.19-7.62,13.19-7.62c2.61-1.51,2.61-5.27,0-6.78Zm-69.92-16.37c0-1.88,2.04-3.06,3.66-2.11l6.8,3.93c1.63.94,1.63,3.29,0,4.23l-6.8,3.93c-1.63.94-3.66-.23-3.66-2.11v-7.85ZM27.71,92.66c0,1.88-2.04,3.05-3.66,2.11l-6.8-3.93c-1.63-.94-1.63-3.29,0-4.23l6.8-3.93c1.63-.94,3.66.23,3.66,2.11v7.85Zm34.22,25.02c0,1.88-2.04,3.06-3.66,2.11l-6.8-3.93c-1.63-.94-1.63-3.29,0-4.23l6.8-3.93c1.63-.94,3.66.23,3.66,2.11v7.85Zm110.32-23.38c-8.03,7.77-18.62,11.94-29.8,11.74-11.01-.2-21.33-4.74-29.06-12.78-7.49-7.79-11.59-17.88-11.59-28.5,0-.28,0-.56,0-.84.48-23.46,19.22-41.49,42.65-41.05,22.3.42,40.85,19.6,40.54,41.9-.16,11.24-4.69,21.73-12.75,29.53Zm103.09-55.7l-6.8,3.93c-1.63.94-3.66-.23-3.66-2.11v-7.85c0-1.88,2.04-3.06,3.66-2.11l6.8,3.93c1.63.94,1.63,3.29,0,4.23Z"/>
    </g>
  </g>
</svg>