<?xml version="1.0" encoding="UTF-8"?>
<svg id="Capa_2" data-name="Capa 2" xmlns="http://www.w3.org/2000/svg" xmlns:xlink="http://www.w3.org/1999/xlink" viewBox="0 0 314.75 137.77">
  <defs>
    <style>
      .cls-1 {
        stroke: url(#Nueva_muestra_de_degradado_1-2);
      }

      .cls-1, .cls-2, .cls-3 {
        fill: none;
        stroke-linecap: round;
        stroke-linejoin: round;
        stroke-width: 3px;
      }

      .cls-2 {
        stroke: url(#Nueva_muestra_de_degradado_1-3);
      }

      .cls-3 {
        stroke: url(#Nueva_muestra_de_degradado_1);
      }
    </style>
    <linearGradient id="Nueva_muestra_de_degradado_1" data-name="Nueva muestra de degradado 1" x1="18.48" y1="85.77" x2="85.7" y2="85.77" gradientUnits="userSpaceOnUse">
      <stop offset="0" stop-color="#00a99d"/>
      <stop offset=".51" stop-color="#76c3a8"/>
      <stop offset=".78" stop-color="#76dba8"/>
      <stop offset="1" stop-color="#76e9a8"/>
    </linearGradient>
    <linearGradient id="Nueva_muestra_de_degradado_1-2" data-name="Nueva muestra de degradado 1" x1="0" y1="68.89" x2="314.75" y2="68.89" xlink:href="#Nueva_muestra_de_degradado_1"/>
    <linearGradient id="Nueva_muestra_de_degradado_1-3" data-name="Nueva muestra de degradado 1" x1="228.99" y1="52.16" x2="296.2" y2="52.16" xlink:href="#Nueva_muestra_de_degradado_1"/>
  </defs>
  <g id="Capa_1-2" data-name="Capa 1">
    <g>
      <path class="cls-3" d="m52.5,53.65c-.22,0-.44,0-.65,0-8.19,0-15.98,3.16-22,8.95-6.2,5.97-9.71,13.94-9.86,22.44-.16,8.63,3.06,16.8,9.06,23.01,6.02,6.22,14.12,9.72,22.8,9.84,17.22.24,32.02-14.08,32.35-31.3.34-18.09-13.58-32.56-31.69-32.93Zm-5.05,50.55l-6.28-15.15h-9.45l7.65,17.25-9.77-5.69c-.88-.51-1.42-1.43-1.42-2.43v-24.62c0-.99.54-1.92,1.42-2.43l20.98-12.21c.93-.54,2.08-.54,3.01,0l6.76,3.93-12.9,41.34Zm28.54-6.01c0,.99-.54,1.92-1.42,2.43l-20.98,12.21c-.12.07-.24.13-.37.18l14.64-45.78,6.71,3.91c.88.51,1.42,1.43,1.42,2.43v24.62Z"/>
      <path class="cls-1" d="m262.6,1.5c-26.33,0-48.03,20.2-50.43,45.92-4.1.03-.34.05-5.48-.11-4.27-.13-7.56,1-10.65,3.66-2.03,1.75-4.22,3.41-6.34,5.02-2.12,1.61-4.3,3.27-6.37,5.04-2.97,2.54-5.75,3.5-9.01,3.1-1.01-.12-2.02-.11-2.95-.08l-10.55-6.09-13.19-7.62c-2.61-1.51-5.87.38-5.87,3.39v10.56c-4.37.03-.44.05-5.65-.11-4.27-.13-7.56,1-10.65,3.66-2.03,1.75-4.22,3.41-6.34,5.02-2.12,1.61-4.3,3.27-6.37,5.04-2.97,2.54-5.75,3.5-9.01,3.1-.39-.05-.77-.07-1.15-.08-2.38-25.73-24.09-45.95-50.43-45.95C24.23,34.95,1.5,57.68,1.5,85.61s22.73,50.66,50.66,50.66c26.33,0,48.03-20.2,50.43-45.92.22.01.45.03.66.07,5.57.8,10.46-.88,15.38-5.3,3.54-3.18,7.47-6.09,11.27-8.9l1.38-1.02c1.16-.86,2.4-1.38,3.31-1.4,6.66-.11,1.72-.1,7.18-.09v10.47c0,3.01,3.26,4.9,5.87,3.39l13.19-7.62,11.26-6.5c.59,0,1.18,0,1.74.09,5.57.8,10.46-.88,15.38-5.3,3.54-3.18,7.47-6.09,11.27-8.9l1.38-1.02c1.16-.86,2.4-1.38,3.31-1.4,6.59-.1,1.82-.1,7-.09,2.37,25.74,24.08,45.97,50.43,45.97,27.93,0,50.66-22.73,50.66-50.66S290.53,1.5,262.6,1.5ZM52.16,127.27c-22.97,0-41.66-18.69-41.66-41.66s18.69-41.66,41.66-41.66,41.66,18.69,41.66,41.66-18.69,41.66-41.66,41.66Zm108.07-56.2l-6.8,3.93c-1.63.94-3.66-.23-3.66-2.11v-7.85c0-1.88,2.04-3.05,3.66-2.11l6.8,3.93c1.63.94,1.63,3.29,0,4.23Zm102.37,22.74c-22.97,0-41.66-18.69-41.66-41.66s18.69-41.66,41.66-41.66,41.66,18.69,41.66,41.66-18.69,41.66-41.66,41.66Z"/>
      <path class="cls-2" d="m263.01,20.05c-.22,0-.44,0-.65,0-8.19,0-15.98,3.16-22,8.95-6.2,5.97-9.71,13.94-9.86,22.44-.16,8.63,3.06,16.8,9.06,23.01,6.02,6.22,14.12,9.72,22.8,9.84,17.22.24,32.02-14.08,32.35-31.3.34-18.09-13.58-32.56-31.69-32.93Zm-5.05,50.55l-6.28-15.15h-9.45l7.65,17.25-9.77-5.69c-.88-.51-1.42-1.43-1.42-2.43v-24.62c0-.99.54-1.92,1.42-2.43l20.98-12.21c.93-.54,2.08-.54,3.01,0l6.76,3.93-12.9,41.34Zm27.12-3.58l-20.98,12.21c-.12.07-.24.13-.37.18l14.64-45.78,6.71,3.91c.88.51,1.42,1.43,1.42,2.43v24.62c0,.99-.54,1.92-1.42,2.43Z"/>
    </g>
  </g>
</svg>